<svg width="60" height="40" viewBox="0 0 60 40" fill="none" xmlns="http://www.w3.org/2000/svg">
<path d="M3.12504 0.541869L56.875 0.54187C58.598 0.54187 60 1.94378 60 3.66691L60 36.3328C60 38.0558 58.5981 39.4578 56.875 39.4578L3.12504 39.4578C1.40203 39.4578 -8.94701e-07 38.0559 -8.53605e-07 36.3328C-4.00218e-07 17.3227 -5.27466e-07 22.6581 -7.45314e-08 3.66691C-3.34381e-08 1.9439 1.40203 0.541869 3.12504 0.541869ZM1.25004 13.8757L4.84746 13.8757C5.19293 13.8757 5.47242 14.1553 5.47242 14.5007L5.47242 25.4992C5.47242 25.8446 5.19281 26.1241 4.84746 26.1241L1.25004 26.1241L1.25004 31.6669L8.75308 31.6669C9.44215 31.6669 10.0031 31.1059 10.0031 30.4168L10.0031 9.58312C10.0031 8.89406 9.44215 8.33308 8.75308 8.33308L1.25004 8.33308L1.25004 13.8757ZM1.25004 15.1257L1.25004 24.8743L4.2225 24.8743L4.2225 15.1257L1.25004 15.1257ZM30 25.119C32.8229 25.119 35.1191 22.8228 35.1191 19.9999C35.1191 17.177 32.8229 14.8808 30 14.8808C27.1778 14.8808 24.8816 17.177 24.8816 19.9999C24.8816 22.8228 27.1778 25.119 30 25.119ZM58.75 15.1257L55.7775 15.1257L55.7775 24.8743L58.75 24.8743C58.75 24.8742 58.75 15.1257 58.75 15.1257ZM58.75 26.1241L55.1525 26.1241C54.8071 26.1241 54.5276 25.8445 54.5276 25.4992L54.5276 14.5007C54.5276 14.1552 54.8072 13.8757 55.1525 13.8757L58.75 13.8757L58.75 8.33296L51.2469 8.33296C50.5579 8.33296 49.9969 8.89394 49.9969 9.583L49.9969 30.4167C49.9969 31.1058 50.5579 31.6668 51.2469 31.6668L58.75 31.6668L58.75 26.1241ZM58.75 36.3329L58.75 32.9168L51.2469 32.9168C49.8681 32.9168 48.747 31.7957 48.747 30.4168L48.747 9.58312C48.747 8.20429 49.8682 7.08316 51.2469 7.08316L58.75 7.08316L58.75 3.66703C58.75 2.63308 57.9089 1.79203 56.875 1.79203L30.6251 1.79203L30.6251 13.6625C33.8447 13.9777 36.3691 16.6989 36.3691 19.9998C36.3691 23.3007 33.8448 26.0219 30.6251 26.3371L30.6251 38.2077L56.875 38.2077C57.9089 38.2079 58.75 37.3668 58.75 36.3329ZM3.12504 38.2079L29.375 38.2079L29.375 26.3372C26.156 26.0219 23.6316 23.3009 23.6316 19.9999C23.6316 16.699 26.1559 13.9779 29.375 13.6627L29.375 1.79179L3.12504 1.79179C2.09109 1.79179 1.25004 2.63285 1.25004 3.66679L1.25004 7.08292L8.75308 7.08292C10.1319 7.08292 11.253 8.20417 11.253 9.58289L11.253 30.4166C11.253 31.7954 10.1318 32.9166 8.75308 32.9166L1.25004 32.9166L1.25004 36.3327C1.25004 37.3668 2.09109 38.2079 3.12504 38.2079Z" fill="#007330"/>
</svg>
